<?xml version="1.0" encoding="UTF-8" standalone="no"?>
<!-- Created with Inkscape (http://www.inkscape.org/) -->

<svg
   xmlns:dc="http://purl.org/dc/elements/1.1/"
   xmlns:cc="http://creativecommons.org/ns#"
   xmlns:rdf="http://www.w3.org/1999/02/22-rdf-syntax-ns#"
   xmlns:svg="http://www.w3.org/2000/svg"
   xmlns="http://www.w3.org/2000/svg"
   xmlns:sodipodi="http://sodipodi.sourceforge.net/DTD/sodipodi-0.dtd"
   xmlns:inkscape="http://www.inkscape.org/namespaces/inkscape"
   version="1.1"
   width="170"
   height="48"
   id="svg3305"
   inkscape:version="0.48.3.1 r9886"
   sodipodi:docname="freedomotic_48_170.svg"
   inkscape:export-filename="/home/gpt/Desarrollo/freedomotic (2)/Logos/freedomotic_185_48.png"
   inkscape:export-xdpi="104.91708"
   inkscape:export-ydpi="104.91708">
  <sodipodi:namedview
     pagecolor="#ffffff"
     bordercolor="#666666"
     borderopacity="1"
     objecttolerance="10"
     gridtolerance="10"
     guidetolerance="10"
     inkscape:pageopacity="0"
     inkscape:pageshadow="2"
     inkscape:window-width="1920"
     inkscape:window-height="1056"
     id="namedview3616"
     showgrid="false"
     inkscape:zoom="5.1617647"
     inkscape:cx="119.00553"
     inkscape:cy="16.224817"
     inkscape:window-x="1920"
     inkscape:window-y="24"
     inkscape:window-maximized="1"
     inkscape:current-layer="svg3305" />
  <defs
     id="defs3307" />
  <metadata
     id="metadata3310">
    <rdf:RDF>
      <cc:Work
         rdf:about="">
        <dc:format>image/svg+xml</dc:format>
        <dc:type
           rdf:resource="http://purl.org/dc/dcmitype/StillImage" />
        <dc:title></dc:title>
      </cc:Work>
    </rdf:RDF>
  </metadata>
  <g
     id="g3147"
     transform="matrix(0.24119867,0,0,0.24119867,-4.6991565,-90.897851)">
    <g
       style="font-size:130.69046021px;font-style:normal;font-variant:normal;font-weight:normal;font-stretch:normal;text-align:center;line-height:125%;letter-spacing:0px;word-spacing:0px;text-anchor:middle;fill:#464543;fill-opacity:1;stroke:none;font-family:Dekar;-inkscape-font-specification:Dekar"
       id="text4029"
       transform="scale(1.0453835,0.95658674)">
      <path
         inkscape:connector-curvature="0"
         id="path3115"
         d="m 313.18739,450.30404 0,35.41711 c -10.71661,-12.67696 -42.34371,-7.9721 -42.34371,11.50076 l 0,28.88259 0,0 c 0,8.62556 6.53453,14.11457 14.89871,16.33631 9.67108,2.61381 22.74015,0.13068 27.96776,-7.31867 l 0,7.18798 6.01176,0 c 0,-30.71223 0,-61.42455 0,-92.00608 l -6.53452,0 m 0,72.92527 c 0,9.93247 -9.67111,13.85319 -17.9046,13.85319 -2.6138,0 -5.35831,-0.26138 -7.71073,-0.91483 -5.75038,-1.56829 -10.19386,-4.96624 -10.19386,-10.06317 l 0.13069,0 0,-29.14397 c 0,-16.46698 35.6785,-15.16008 35.6785,-0.91483 l 0,27.18361" />
      <path
         inkscape:connector-curvature="0"
         id="path3117"
         d="m 365.94141,535.12214 c -4.57416,1.56829 -9.54041,1.82967 -14.37595,1.04553 -6.7959,-1.17621 -12.67698,-4.96625 -12.67698,-10.84731 l 0,-30.32019 c 0,-5.22761 4.44349,-8.49488 10.06317,-10.06316 2.48312,-0.65345 5.09693,-1.04553 7.84143,-1.04553 2.74449,0 5.35831,0.39208 7.84142,1.04553 5.61969,1.56828 10.06317,4.96624 10.06317,10.06316 l 0,0 0,30.32019 c 0,4.70485 -3.79003,8.10281 -8.75626,9.80178 m 15.29078,-40.12197 0,0 c 0,-8.62556 -6.53453,-14.11457 -14.89871,-16.3363 -3.00588,-0.91484 -6.27314,-1.30691 -9.5404,-1.30691 -3.26726,0 -6.40384,0.39207 -9.54041,1.30691 -8.36418,2.22173 -14.89871,7.71074 -14.89871,16.3363 l 0,30.32019 c 0,9.80177 8.3642,15.42148 18.16597,17.12045 5.88107,0.91483 11.89284,0.65345 17.51253,-1.17621 7.58004,-2.61381 13.19973,-7.84144 13.19973,-15.94424 l 0,-30.32019" />
      <path
         inkscape:connector-curvature="0"
         id="path3119"
         d="m 439.48747,495.00017 c 0.52276,-7.84142 8.3642,-11.37007 16.20562,-11.37007 8.1028,0 16.20561,3.65934 16.20561,12.02353 l 0,46.65649 6.66522,0 0,-46.5258 c 0,-12.2849 -11.37008,-18.03529 -22.74014,-18.16598 -7.44935,0 -15.68286,2.8752 -19.2115,9.01764 -2.7445,-6.14244 -10.32455,-9.27902 -18.29666,-9.27902 -6.14245,0 -12.93836,1.56829 -17.77391,6.9266 l 0,-6.14246 -6.66521,0 0,64.16902 6.66521,0 0,-45.61097 c 0,-8.1028 8.3642,-13.19974 16.72838,-13.46112 7.58004,-0.13069 15.1601,3.65934 15.68286,11.76214 l 0,47.30995 c 2.22173,0 4.31278,0 6.53452,0 l 0,-47.30995" />
      <path
         inkscape:connector-curvature="0"
         id="path3121"
         d="m 525.73092,535.12214 c -4.57416,1.56829 -9.54041,1.82967 -14.37595,1.04553 -6.7959,-1.17621 -12.67698,-4.96625 -12.67698,-10.84731 l 0,-30.32019 c 0,-5.22761 4.44348,-8.49488 10.06317,-10.06316 2.48311,-0.65345 5.09693,-1.04553 7.84143,-1.04553 2.74449,0 5.35831,0.39208 7.84142,1.04553 5.61969,1.56828 10.06317,4.96624 10.06317,10.06316 l 0,0 0,30.32019 c 0,4.70485 -3.79003,8.10281 -8.75626,9.80178 m 15.29078,-40.12197 0,0 c 0,-8.62556 -6.53453,-14.11457 -14.89871,-16.3363 -3.00588,-0.91484 -6.27315,-1.30691 -9.5404,-1.30691 -3.26726,0 -6.40384,0.39207 -9.54041,1.30691 -8.36418,2.22173 -14.89871,7.71074 -14.89871,16.3363 l 0,30.32019 c 0,9.80177 8.3642,15.42148 18.16597,17.12045 5.88107,0.91483 11.89284,0.65345 17.51253,-1.17621 7.58003,-2.61381 13.19973,-7.84144 13.19973,-15.94424 l 0,-30.32019" />
      <path
         inkscape:connector-curvature="0"
         id="path3123"
         d="m 560.06984,450.56542 0,27.57568 -11.23938,0 0,5.88107 11.23938,0 0,40.38336 c 0,14.50662 11.37008,18.81942 23.2629,18.16597 l 0,-6.01176 c -8.62556,-0.26138 -16.72838,-1.30692 -16.72838,-12.2849 l 0,-40.12198 c 5.22761,-0.13069 10.32455,-0.13069 15.55217,-0.13069 l 0,-5.88107 -15.55217,0 0,-27.57568 -6.53452,0" />
      <path
         inkscape:connector-curvature="0"
         id="path3125"
         d="m 592.88131,462.19687 7.44936,0 0,-11.63145 -7.44936,0 0,11.63145 m 0.39207,80.11325 6.66521,0 0,-64.16902 -6.66521,0 0,64.16902" />
      <path
         inkscape:connector-curvature="0"
         id="path3127"
         d="m 656.62966,525.45105 c 0,5.22761 -4.44348,8.62557 -10.06316,10.19386 l -0.13069,0 c -4.83554,1.3069 -10.71662,1.3069 -15.55217,0 -4.96623,-1.4376 -10.06316,-4.57418 -10.06316,-10.45524 l 0,-29.79743 c 0,-5.88106 5.22762,-9.01764 10.06316,-10.32454 l 0,0 c 2.48312,-0.65345 5.09693,-1.04553 7.84143,-1.04553 2.61381,0 5.35831,0.39208 7.71074,1.04553 5.75037,1.56828 10.19385,4.96624 10.19385,10.19385 l 6.53453,0 c 0,-8.75625 -6.53453,-14.11457 -14.89872,-16.46699 -3.13656,-0.78415 -6.40383,-1.30691 -9.5404,-1.30691 -3.26726,0 -6.53452,0.52276 -9.5404,1.30691 l 0,0 c -7.97211,2.22173 -14.89871,7.58005 -14.89871,16.46699 l 0,29.92812 c 0,9.01763 6.79591,14.50664 14.89871,16.72838 6.14244,1.56828 12.93836,1.56828 19.0808,0 l 0,-0.13069 c 8.36419,-2.22174 14.89872,-7.71075 14.89872,-16.33631 l -6.53453,0" />
    </g>
  </g>
  <g
     id="g4033"
     transform="matrix(0.35683184,0,0,0.35683184,195.96138,-326.92608)">
    <g
       style="fill:#4c4b49;fill-opacity:1"
       id="g4035"
       transform="translate(-64.548847,464.39521)">
      <path
         inkscape:connector-curvature="0"
         style="fill:#4c4b49;fill-opacity:1;fill-rule:nonzero;stroke:none"
         id="path4037"
         d="m -130.10765,462.36996 a 2.74004,2.74004 0 1 1 -5.48008,0 2.74004,2.74004 0 1 1 5.48008,0 z" />
      <path
         inkscape:connector-curvature="0"
         style="fill:#4c4b49;fill-opacity:1;fill-rule:nonzero;stroke:none"
         id="path4039"
         d="m -132.59375,467.9375 c -15.82272,0 -16.58449,11.75122 -16.58449,15.08926 0,1.9014 -0.10301,11.25449 -0.10301,11.25449 l 33.02309,0.15326 c 0,0 0.16521,-9.04734 0.16521,-10.94795 0,-7.81613 -4.49604,-15.54906 -16.5008,-15.54906 z m -6.6875,11.75 c 2.48959,0 4.53125,2.01041 4.53125,4.5 0,2.48959 -2.04166,4.5 -4.53125,4.5 -2.48959,0 -4.5,-2.01041 -4.5,-4.5 0,-2.48959 2.01041,-4.5 4.5,-4.5 z m 12.5625,0 c 2.48959,0 4.5,2.01041 4.5,4.5 0,2.48959 -2.01041,4.5 -4.5,4.5 -2.48959,0 -4.5,-2.01041 -4.5,-4.5 0,-2.48959 2.01041,-4.5 4.5,-4.5 z" />
      <rect
         style="fill:#4c4b49;fill-opacity:1;fill-rule:nonzero;stroke:none"
         id="rect4041"
         y="496.73505"
         x="-149.31238"
         height="5.4800777"
         width="33.057243" />
      <rect
         style="fill:#4c4b49;fill-opacity:1;fill-rule:nonzero;stroke:none"
         id="rect4043"
         y="464.04935"
         x="-133.4664"
         height="5.833631"
         width="1.4142135" />
    </g>
  </g>
  <path
     inkscape:connector-curvature="0"
     style="font-size:145.23588562px;font-style:normal;font-variant:normal;font-weight:normal;font-stretch:normal;text-align:center;line-height:125%;letter-spacing:0px;word-spacing:0px;text-anchor:middle;fill:#8cad25;fill-opacity:1;stroke:none;font-family:dearJoe 5 CASUAL;-inkscape-font-specification:dearJoe 5 CASUAL"
     id="path3102"
     d="m 21.578262,22.008669 c 0,-0.280243 -0.175154,-0.455399 -0.175154,-0.490429 -0.280244,0 -0.665583,-0.03503 -1.191044,-0.07006 -0.525458,-0.07006 -0.805706,-0.105092 -0.875767,-0.105092 -0.03503,0 -0.770677,0.105092 -2.276996,0.315275 -1.611411,0.175154 -2.907549,0.315278 -3.923439,0.385339 0.945828,-2.767424 1.716505,-4.729146 2.241965,-5.955219 0.315276,-0.805707 0.910799,-1.92669 1.751535,-3.362949 0.945828,-1.611409 1.541352,-2.417117 1.821597,-2.452148 0.315276,-0.03503 0.455399,0.245214 0.455399,0.840736 0,-0.105093 -0.105092,0.665585 -0.350307,2.276995 0.420369,0.210186 0.700615,0.315278 0.805706,0.315278 0.490429,0 0.945829,-0.525463 1.401229,-1.541351 0.385337,-0.910797 0.595522,-1.751536 0.595522,-2.4871803 0.03503,-0.525461 -0.140124,-1.1209829 -0.525461,-1.8566268 -0.420368,-0.8757683 -0.9108,-1.2961365 -1.47129,-1.2961365 -0.455398,0 -1.050921,0.2802463 -1.821596,0.8757682 -0.665583,0.5254586 -1.156014,0.9808585 -1.436259,1.3661975 -0.735644,1.1209805 -1.366198,2.3470589 -1.856627,3.6782219 -1.821595,4.589019 -3.222826,7.987004 -4.168654,10.263997 -0.56049,0.175154 -1.1209829,0.350307 -1.6464429,0.525461 -0.840736,0.350305 -1.2611053,0.770676 -1.2611053,1.296134 0,0.350307 0.2101846,0.770678 0.6305527,1.296137 0.6305519,0.630553 0.945829,1.01589 0.945829,1.120983 0,0.945829 -0.9108002,3.818351 -2.7323948,8.617553 -1.7865641,4.799202 -2.6973641,7.146263 -2.6973641,7.076202 0,0.245215 0.1050922,0.490429 0.3503071,0.805705 0.3152759,0.420368 0.7356451,0.630554 1.2260746,0.630554 0.3853373,0 0.6305527,-0.210186 0.8057061,-0.630554 0.7006134,-1.926685 1.7165057,-5.079456 3.0126403,-9.388227 1.2611043,-4.168651 2.2769963,-7.251358 3.0476713,-9.283136 1.226073,-0.385339 2.45215,-0.630553 3.608162,-0.770675 0.52546,-0.03503 2.171906,-0.385339 4.869268,-1.015891 0.56049,-0.315278 0.840737,-0.665585 0.840737,-0.980861" />
  <path
     inkscape:connector-curvature="0"
     style="font-size:145.23588562px;font-style:normal;font-variant:normal;font-weight:normal;font-stretch:normal;text-align:center;line-height:125%;letter-spacing:0px;word-spacing:0px;text-anchor:middle;fill:#8cad25;fill-opacity:1;stroke:none;font-family:dearJoe 5 CASUAL;-inkscape-font-specification:dearJoe 5 CASUAL"
     id="path3104"
     d="m 31.86251,23.269774 c 0,-1.611409 -0.140125,-2.732395 -0.385339,-3.362946 -0.245215,-0.525461 -0.595522,-0.770675 -1.120983,-0.770675 -0.770673,0 -1.611412,0.350307 -2.52221,1.050919 -0.700612,0.595522 -1.401229,1.226076 -2.066812,1.821597 -0.07006,-0.07006 -0.175154,-0.350307 -0.350307,-0.840736 -0.140122,-0.350307 -0.350308,-0.525461 -0.630551,-0.525461 -0.4554,0.385337 -0.840737,0.945829 -1.085952,1.646444 -0.140124,0.350307 -0.350307,1.120983 -0.630553,2.347056 -0.665583,2.206931 -1.261105,4.028534 -1.751534,5.534851 -0.315278,1.156012 -0.4554,1.786566 -0.4554,1.92669 0,0.315276 0.245214,0.735644 0.770675,1.191044 0.350308,0.315275 0.665583,0.525461 0.94583,0.665583 0.385336,-0.315276 0.700614,-0.9108 0.875768,-1.716505 0.10509,-0.665583 0.245214,-1.296137 0.350305,-1.961719 0.630553,-1.996749 1.576383,-3.88841 2.802458,-5.674973 1.226073,-1.786566 2.206934,-2.697366 2.942578,-2.697366 0.455398,0 0.665583,0.245217 0.665583,0.770675 0,0.280247 -0.315276,1.331169 -0.210183,1.716505 0.03503,0.525461 -0.03503,1.01589 0.525459,1.611412 0.385339,-0.175153 0.700614,-0.56049 0.98086,-1.191044 0.245215,-0.56049 0.350308,-1.085951 0.350308,-1.541351" />
  <path
     inkscape:connector-curvature="0"
     style="font-size:145.23588562px;font-style:normal;font-variant:normal;font-weight:normal;font-stretch:normal;text-align:center;line-height:125%;letter-spacing:0px;word-spacing:0px;text-anchor:middle;fill:#8cad25;fill-opacity:1;stroke:none;font-family:dearJoe 5 CASUAL;-inkscape-font-specification:dearJoe 5 CASUAL"
     id="path3106"
     d="m 44.972203,21.97364 c 0,-0.525461 -0.245215,-1.050922 -0.770676,-1.576383 -0.525461,-0.525461 -1.01589,-0.770675 -1.541351,-0.770675 -1.891656,0 -3.88841,1.191046 -5.990249,3.608163 -2.101841,2.417115 -3.117734,4.553993 -3.082702,6.410617 0.03503,1.226075 0.420368,2.276997 1.156012,3.187795 0.875768,1.01589 1.996751,1.541351 3.362949,1.541351 0.805705,0 1.996751,-0.4554 3.643192,-1.366197 1.646442,-0.875766 2.662334,-1.611413 3.047671,-2.171905 -0.245215,-0.245215 -0.56049,-0.350305 -0.875768,-0.280244 0,0.03503 -0.770676,0.350307 -2.347056,1.01589 -1.366195,0.56049 -2.382088,0.840737 -3.047671,0.840737 -0.595522,0 -1.156015,-0.210186 -1.716505,-0.630554 -0.700614,-0.525459 -1.085951,-1.191044 -1.156014,-1.961719 1.786565,-0.105091 3.783319,-1.120983 5.990251,-3.012639 2.206931,-1.891656 3.327917,-3.503073 3.327917,-4.834237 m -2.347056,0.525459 c -0.595522,1.226073 -1.3662,2.171905 -2.347059,2.907548 -0.945827,0.700615 -1.57638,1.120983 -1.891658,1.296137 -0.630552,0.350307 -1.296137,0.525461 -1.996749,0.525461 0.385337,-0.945829 1.120983,-1.961722 2.241963,-3.082702 1.331166,-1.296135 2.487183,-1.926688 3.503071,-1.926688 0.140124,0 0.315278,0.10509 0.490432,0.280244" />
  <path
     inkscape:connector-curvature="0"
     style="font-size:145.23588562px;font-style:normal;font-variant:normal;font-weight:normal;font-stretch:normal;text-align:center;line-height:125%;letter-spacing:0px;word-spacing:0px;text-anchor:middle;fill:#8cad25;fill-opacity:1;stroke:none;font-family:dearJoe 5 CASUAL;-inkscape-font-specification:dearJoe 5 CASUAL"
     id="path3108"
     d="m 58.656071,21.97364 c 0,-0.525461 -0.245214,-1.050922 -0.770675,-1.576383 -0.525459,-0.525461 -1.015891,-0.770675 -1.541352,-0.770675 -1.891656,0 -3.888409,1.191046 -5.990248,3.608163 -2.101841,2.417115 -3.117734,4.553993 -3.082702,6.410617 0.03503,1.226075 0.420368,2.276997 1.156012,3.187795 0.875768,1.01589 1.996753,1.541351 3.362948,1.541351 0.805705,0 1.996752,-0.4554 3.643193,-1.366197 1.646441,-0.875766 2.662334,-1.611413 3.047671,-2.171905 -0.245215,-0.245215 -0.560491,-0.350305 -0.875766,-0.280244 0,0.03503 -0.770678,0.350307 -2.347059,1.01589 -1.366195,0.56049 -2.382087,0.840737 -3.04767,0.840737 -0.595522,0 -1.156015,-0.210186 -1.716505,-0.630554 -0.700612,-0.525459 -1.085951,-1.191044 -1.156012,-1.961719 1.786563,-0.105091 3.783317,-1.120983 5.990248,-3.012639 2.206934,-1.891656 3.327917,-3.503073 3.327917,-4.834237 m -2.347056,0.525459 c -0.595522,1.226073 -1.366197,2.171905 -2.347058,2.907548 -0.945827,0.700615 -1.576381,1.120983 -1.891656,1.296137 -0.630554,0.350307 -1.296137,0.525461 -1.996751,0.525461 0.385336,-0.945829 1.120982,-1.961722 2.241965,-3.082702 1.331166,-1.296135 2.487181,-1.926688 3.503071,-1.926688 0.140122,0 0.315276,0.10509 0.490429,0.280244" />
  <path
     inkscape:connector-curvature="0"
     style="opacity:0.98999999000000005;fill:#8cad25;fill-opacity:1;fill-rule:nonzero;stroke:none"
     id="path4888"
     d="m 125.69784,25.607734 -2.62975,-3.085259 5.25951,0 z" />
  <path
     inkscape:connector-curvature="0"
     style="opacity:0.98999999000000005;fill:#8cad25;fill-opacity:1;fill-rule:nonzero;stroke:none"
     id="path4890"
     d="m 125.69787,26.321378 -1.6348,4.894277 3.26959,0 z" />
</svg>
